<?xml version="1.0" encoding="UTF-8"?>
<svg id="katman_1" data-name="katman 1" xmlns="http://www.w3.org/2000/svg" version="1.1" viewBox="0 0 742.1 229.8">
  <defs>
    <style>
      .cls-1 {
        fill: #e30613;
      }

      .cls-1, .cls-2, .cls-3, .cls-4, .cls-5 {
        stroke-width: 0px;
      }

      .cls-2 {
        fill: #d61217;
      }

      .cls-3 {
        fill: #000;
      }

      .cls-4 {
        fill: #89bd24;
      }

      .cls-5 {
        fill: #1f54a2;
      }
    </style>
  </defs>
  <path class="cls-3" d="M279.9,94.8h4.5c5,0,7.5-2.1,7.5-6.5s-2.5-6.5-7.5-6.5h-4.5v13h0ZM279.9,123h-13.6v-52.2h21.6c5.9,0,10.4,1.5,13.5,4.6,3.1,3,4.6,7.3,4.6,12.9s-1.5,9.8-4.6,12.9c-3.1,3-7.6,4.6-13.5,4.6h-8v17.3h0Z"/>
  <polygon class="cls-3" points="343 82.3 326.8 82.3 326.8 91 342.1 91 342.1 102.5 326.8 102.5 326.8 111.5 343 111.5 343 123 313.3 123 313.3 70.8 343 70.8 343 82.3 343 82.3"/>
  <path class="cls-3" d="M366.3,94.1h2.6c2.7,0,4.7-.6,6.2-1.7,1.5-1.1,2.1-2.7,2.1-4.8s-.7-3.7-2.1-4.8c-1.5-1.1-3.5-1.7-6.2-1.7h-2.6v12.9h0ZM396.1,123h-16.9l-12.9-20.1v20.1h-13.6v-52.2h21.1c2.9,0,5.5.4,7.6,1.2,2.1.9,3.9,2.1,5.4,3.5,1.4,1.5,2.4,3.2,3.2,5.1.7,1.9,1,4,1,6.2,0,3.9-1,7.2-2.8,9.6-1.9,2.5-4.8,4.1-8.5,5.1l16.4,21.4h0Z"/>
  <polygon class="cls-3" points="421.6 82.3 421.6 123 408 123 408 82.3 396.9 82.3 396.9 70.8 432.7 70.8 432.7 82.3 421.6 82.3 421.6 82.3"/>
  <path class="cls-3" d="M464.7,103.6l-6.1-17.4-6.1,17.4h12.2ZM468.3,113.9h-19.4l-3.1,9.1h-14.5l19.9-52.2h14.8l19.9,52.2h-14.5l-3.1-9.1h0Z"/>
  <polygon class="cls-3" points="489.5 123 498.3 70.8 511.7 70.8 522.2 98.6 532.6 70.8 546 70.8 554.8 123 541.3 123 536.8 93 524.5 123 519.1 123 507.4 93 502.9 123 489.5 123 489.5 123"/>
  <polygon class="cls-3" points="577 123 563.4 123 563.4 70.8 577 70.8 577 123 577 123"/>
  <polygon class="cls-3" points="587.9 123 587.9 70.8 601.5 70.8 626.5 102.7 626.5 70.8 640 70.8 640 123 626.5 123 601.5 91.1 601.5 123 587.9 123 587.9 123"/>
  <path class="cls-3" d="M679.4,103.6l-6.1-17.4-6.1,17.4h12.2ZM683,113.9h-19.4l-3.1,9.1h-14.5l19.9-52.2h14.8l19.9,52.2h-14.5l-3.1-9.1h0Z"/>
  <polygon class="cls-1" points="271.1 157.3 285.2 142.9 292.4 142.9 276.2 159.2 292.5 178.9 285.2 178.9 272.3 162.9 271.1 164 271.1 178.9 265.7 178.9 265.7 142.9 271.1 142.9 271.1 157.3 271.1 157.3"/>
  <polygon class="cls-1" points="297.9 178.9 303.3 178.9 303.3 142.9 297.9 142.9 297.9 178.9 297.9 178.9"/>
  <polygon class="cls-1" points="317.9 142.9 317.9 173.8 328.5 173.8 328.5 178.9 312.5 178.9 312.5 142.9 317.9 142.9 317.9 142.9"/>
  <path class="cls-1" d="M357.3,170.2h-15.4l-4,8.7h-5.8l17.8-38.2,17.2,38.2h-6l-3.8-8.7h0ZM355.2,165.1l-5.3-12.2-5.6,12.2h10.9Z"/>
  <polygon class="cls-1" points="372.1 178.9 372.1 140.5 398.3 167.9 398.3 142.9 403.8 142.9 403.8 181.1 377.5 153.7 377.5 178.9 372.1 178.9 372.1 178.9"/>
  <path class="cls-1" d="M431.8,160.1h14.9v1.2c0,2.7-.3,5.1-1,7.2-.6,1.9-1.7,3.7-3.1,5.4-3.3,3.8-7.6,5.6-12.7,5.6s-9.4-1.8-12.9-5.4c-3.6-3.7-5.4-8-5.4-13.1s1.8-9.7,5.4-13.3c3.7-3.7,8.1-5.5,13.4-5.5s5.4.6,7.9,1.8c2.3,1.1,4.6,3,6.9,5.6l-3.9,3.7c-3-3.9-6.5-5.9-10.8-5.9s-7,1.3-9.6,3.9c-2.6,2.6-3.9,5.8-3.9,9.7s1.4,7.3,4.3,9.9c2.7,2.4,5.6,3.6,8.7,3.6s5.1-.9,7.2-2.7c2.1-1.8,3.3-4,3.6-6.5h-9v-5.1h0Z"/>
  <path class="cls-1" d="M474.2,164.3v14.6h-5.4v-36h6.2c3,0,5.3.2,6.8.6,1.6.4,2.9,1.2,4.1,2.4,2,2.1,3.1,4.6,3.1,7.6s-1.1,5.9-3.3,7.8c-2.2,2-5.2,2.9-8.9,2.9h-2.5ZM474.2,159.2h2c5,0,7.4-1.9,7.4-5.7s-2.6-5.6-7.7-5.6h-1.8v11.3h0Z"/>
  <polygon class="cls-1" points="515 148 500.5 148 500.5 156.7 514.6 156.7 514.6 161.8 500.5 161.8 500.5 173.8 515 173.8 515 178.9 495.1 178.9 495.1 142.9 515 142.9 515 148 515 148"/>
  <path class="cls-1" d="M534.9,163.6l11.1,15.3h-6.6l-10.3-14.7h-1v14.7h-5.4v-36h6.4c4.7,0,8.2.9,10.3,2.7,2.3,2,3.5,4.6,3.5,7.9s-.7,4.7-2.2,6.6c-1.5,1.9-3.4,3-5.8,3.5h0ZM528.1,159.4h1.7c5.2,0,7.7-2,7.7-5.9s-2.5-5.5-7.5-5.5h-2v11.4h0Z"/>
  <polygon class="cls-1" points="561.4 148 561.4 178.9 556 178.9 556 148 547.7 148 547.7 142.9 569.7 142.9 569.7 148 561.4 148 561.4 148"/>
  <path class="cls-1" d="M594.3,170.2h-15.4l-4,8.7h-5.8l17.8-38.2,17.2,38.2h-6l-3.8-8.7h0ZM592.1,165.1l-5.3-12.2-5.6,12.2h10.9Z"/>
  <polygon class="cls-1" points="607.8 178.9 615.4 140.2 627.7 168.2 640.5 140.2 647.3 178.9 641.7 178.9 638.3 157.2 627.6 180.6 617.3 157.1 613.4 178.9 607.8 178.9 607.8 178.9"/>
  <polygon class="cls-1" points="655.4 178.9 660.9 178.9 660.9 142.9 655.4 142.9 655.4 178.9 655.4 178.9"/>
  <polygon class="cls-1" points="670.1 178.9 670.1 140.5 696.3 167.9 696.3 142.9 701.7 142.9 701.7 181.1 675.5 153.7 675.5 178.9 670.1 178.9 670.1 178.9"/>
  <path class="cls-1" d="M732.3,170.2h-15.4l-4,8.7h-5.8l17.8-38.2,17.2,38.2h-6l-3.8-8.7h0ZM730.1,165.1l-5.3-12.2-5.6,12.2h10.9Z"/>
  <polygon class="cls-1" points="265.7 227.6 271.1 227.6 271.1 191.6 265.7 191.6 265.7 227.6 265.7 227.6"/>
  <polygon class="cls-1" points="280.3 227.6 280.3 189.2 306.6 216.7 306.6 191.6 312 191.6 312 229.8 285.8 202.4 285.8 227.6 280.3 227.6 280.3 227.6"/>
  <polygon class="cls-1" points="331.1 196.8 331.1 227.6 325.7 227.6 325.7 196.8 317.4 196.8 317.4 191.6 339.3 191.6 339.3 196.8 331.1 196.8 331.1 196.8"/>
  <polygon class="cls-1" points="364.6 196.8 350.2 196.8 350.2 205.4 364.2 205.4 364.2 210.5 350.2 210.5 350.2 222.5 364.6 222.5 364.6 227.6 344.7 227.6 344.7 191.6 364.6 191.6 364.6 196.8 364.6 196.8"/>
  <path class="cls-1" d="M384.5,212.3l11.1,15.3h-6.6l-10.3-14.7h-1v14.7h-5.4v-36h6.4c4.7,0,8.2.9,10.3,2.7,2.3,2,3.5,4.6,3.5,7.9s-.7,4.7-2.2,6.6c-1.5,1.9-3.4,3-5.8,3.5h0ZM377.7,208.2h1.7c5.2,0,7.7-2,7.7-5.9s-2.5-5.5-7.5-5.5h-1.9v11.4h0Z"/>
  <polygon class="cls-1" points="401.5 227.6 401.5 189.2 427.8 216.7 427.8 191.6 433.2 191.6 433.2 229.8 407 202.4 407 227.6 401.5 227.6 401.5 227.6"/>
  <path class="cls-1" d="M463.8,218.9h-15.4l-4,8.7h-5.8l17.8-38.2,17.2,38.2h-6l-3.8-8.7h0ZM461.6,213.8l-5.3-12.2-5.6,12.2h10.9Z"/>
  <path class="cls-1" d="M498.9,197l-4.4,2.6c-.8-1.4-1.6-2.4-2.3-2.8-.8-.5-1.8-.7-3-.7s-2.8.4-3.8,1.3c-1,.8-1.5,1.9-1.5,3.1s1.3,3.1,3.9,4.2l3.6,1.5c2.9,1.2,5.1,2.6,6.4,4.3,1.3,1.7,2,3.8,2,6.2s-1.1,6.1-3.3,8.2c-2.2,2.2-5,3.3-8.3,3.3s-5.7-.9-7.7-2.8c-2-1.9-3.2-4.5-3.7-7.8l5.5-1.2c.2,2.1.7,3.5,1.3,4.3,1.1,1.6,2.8,2.3,4.9,2.3s3.1-.6,4.2-1.7c1.1-1.1,1.7-2.6,1.7-4.3s0-1.3-.3-1.9c-.2-.6-.5-1.1-.9-1.6-.4-.5-1-1-1.6-1.4-.7-.4-1.4-.8-2.3-1.2l-3.5-1.4c-4.9-2.1-7.4-5.2-7.4-9.2s1.1-5,3.1-6.8c2.1-1.9,4.6-2.8,7.7-2.8s7.4,2,9.7,6.1h0Z"/>
  <polygon class="cls-1" points="506.9 227.6 512.4 227.6 512.4 191.6 506.9 191.6 506.9 227.6 506.9 227.6"/>
  <path class="cls-1" d="M519.8,209.5c0-5.1,1.9-9.4,5.5-13.1,3.7-3.6,8.2-5.4,13.4-5.4s9.5,1.8,13.2,5.5c3.7,3.7,5.5,8.1,5.5,13.2s-1.9,9.6-5.5,13.2c-3.7,3.6-8.2,5.4-13.5,5.4s-8.8-1.6-12.5-4.8c-4.1-3.6-6.1-8.2-6.1-14h0ZM525.2,209.5c0,4,1.3,7.3,4,9.8,2.7,2.5,5.7,3.8,9.2,3.8s7-1.3,9.6-3.9c2.6-2.6,3.9-5.9,3.9-9.6s-1.3-7.1-3.8-9.6c-2.6-2.6-5.7-3.9-9.5-3.9s-6.9,1.3-9.4,3.9c-2.6,2.6-3.9,5.8-3.9,9.5h0Z"/>
  <polygon class="cls-1" points="564.8 227.6 564.8 189.2 591 216.7 591 191.6 596.4 191.6 596.4 229.8 570.2 202.4 570.2 227.6 564.8 227.6 564.8 227.6"/>
  <path class="cls-1" d="M627,218.9h-15.4l-4,8.7h-5.8l17.8-38.2,17.2,38.2h-6l-3.8-8.7h0ZM624.8,213.8l-5.3-12.2-5.6,12.2h10.9Z"/>
  <polygon class="cls-1" points="647.2 191.6 647.2 222.5 657.8 222.5 657.8 227.6 641.8 227.6 641.8 191.6 647.2 191.6 647.2 191.6"/>
  <path class="cls-4" d="M116.5,128h56.9c6.9,0,13-3.8,16.6-9.1l32.4-47.8h-56.9c-6.9,0-13,3.8-16.6,9.1l-32.4,47.8h0Z"/>
  <path class="cls-2" d="M116.5,0h56.9c6.9,0,13,3.8,16.6,9.1l32.4,47.8h-56.9c-6.9,0-13-3.8-16.6-9.1L116.5,0h0Z"/>
  <path class="cls-5" d="M0,168.2h56.9c6.9,0,13.1-3.7,16.6-9.1l58.4-88.1h-56.9c-6.9,0-13.1,3.7-16.6,9.1L0,168.2h0Z"/>
</svg>